<svg width="3000" height="4646" viewBox="0 0 3000 4646" fill="none" xmlns="http://www.w3.org/2000/svg">
<path d="M112.601 4477.49C112.595 4477.36 112.589 4477.22 112.58 4477.09C112.557 4476.63 112.528 4476.17 112.494 4475.72C112.129 4470.58 111.259 4465.87 109.773 4461.72C109.081 4459.78 108.251 4457.96 107.28 4456.29C107.28 4456.29 107.278 4456.28 107.276 4456.28H37.5508V4483.35C37.5508 4484.57 37.5761 4485.77 37.631 4486.95C37.6415 4487.18 37.6521 4487.42 37.6648 4487.66C37.6648 4487.67 37.6648 4487.68 37.6648 4487.69C37.7007 4488.34 37.745 4488.98 37.7978 4489.62C37.9603 4491.63 38.2094 4493.59 38.5429 4495.5C39.3344 4500.03 40.6094 4504.22 42.4099 4507.98C42.5302 4508.23 42.6569 4508.49 42.7835 4508.74C48.4364 4519.91 58.8913 4526.98 75.2144 4526.98C80.0714 4526.98 84.3712 4526.41 88.1601 4525.32C89.0699 4525.06 89.9522 4524.77 90.8029 4524.45C90.805 4524.45 90.8092 4524.45 90.8113 4524.45C96.6119 4522.27 101.078 4518.77 104.414 4514.22C105.564 4512.66 106.579 4510.96 107.47 4509.16C107.538 4509.02 107.605 4508.88 107.675 4508.74C107.795 4508.49 107.911 4508.23 108.025 4507.98C110.799 4501.84 112.217 4494.49 112.595 4486.34C112.595 4486.29 112.599 4486.24 112.601 4486.2C112.667 4484.73 112.701 4483.23 112.701 4481.71C112.701 4480.28 112.669 4478.87 112.601 4477.5V4477.49ZM75.3558 4509.75C67.0476 4509.9 63.5753 4503.41 62.6676 4492.98L62.5156 4485.28C62.5156 4481.97 62.5452 4474.25 63.151 4471.53C63.4634 4470.13 64.7827 4459.01 75.1173 4459C85.4752 4459 86.6847 4470.22 87.0625 4471.53C87.7422 4474.25 87.7422 4481.12 87.7422 4484.37L87.5902 4492.98C86.9865 4501.89 83.9659 4509.59 75.3558 4509.75Z" fill="url(#paint0_linear_17510_12913)"/>
<mask id="mask0_17510_12913" style="mask-type:luminance" maskUnits="userSpaceOnUse" x="37" y="4456" width="76" height="71">
<path d="M112.601 4477.5C112.595 4477.36 112.589 4477.23 112.58 4477.09C112.557 4476.63 112.528 4476.18 112.494 4475.72C112.129 4470.59 111.259 4465.87 109.773 4461.72C109.081 4459.78 108.251 4457.97 107.28 4456.29C107.28 4456.29 107.278 4456.29 107.276 4456.28H37.5508V4483.36C37.5508 4484.57 37.5761 4485.77 37.631 4486.95C37.6415 4487.19 37.6521 4487.42 37.6648 4487.66C37.6648 4487.67 37.6648 4487.68 37.6648 4487.69C37.7007 4488.34 37.745 4488.98 37.7978 4489.62C37.9603 4491.64 38.2094 4493.6 38.5429 4495.5C39.3344 4500.03 40.6094 4504.23 42.4099 4507.98C42.5302 4508.24 42.6569 4508.49 42.7835 4508.74C48.4364 4519.91 58.8913 4526.99 75.2144 4526.99C80.0714 4526.99 84.3712 4526.41 88.1601 4525.33C89.0699 4525.07 89.9522 4524.78 90.8029 4524.46C90.805 4524.46 90.8092 4524.45 90.8113 4524.45C96.6119 4522.28 101.078 4518.78 104.414 4514.23C105.564 4512.66 106.579 4510.97 107.47 4509.16C107.538 4509.02 107.605 4508.88 107.675 4508.74C107.795 4508.49 107.911 4508.24 108.025 4507.98C110.799 4501.85 112.217 4494.49 112.595 4486.34C112.595 4486.3 112.599 4486.25 112.601 4486.2C112.667 4484.73 112.701 4483.24 112.701 4481.72C112.701 4480.29 112.669 4478.88 112.601 4477.5V4477.5ZM75.3558 4509.75C67.0476 4509.91 63.5753 4503.41 62.6676 4492.99L62.5156 4485.28C62.5156 4481.97 62.5452 4474.26 63.151 4471.54C63.4634 4470.13 64.7827 4459.01 75.1173 4459.01C85.4752 4459 86.6847 4470.22 87.0625 4471.54C87.7422 4474.26 87.7422 4481.12 87.7422 4484.38L87.5902 4492.99C86.9865 4501.9 83.9659 4509.59 75.3558 4509.75Z" fill="white"/>
</mask>
<g mask="url(#mask0_17510_12913)">
<path d="M62.4595 4515.18C62.4595 4541.44 33.7733 4560.07 27.6371 4556.4C22.1173 4553.09 35.12 4531.96 25.5051 4521.58C16.4708 4511.82 -2.51407 4522.36 -7.18534 4515.18C-12.8023 4506.54 3.36671 4473.96 27.6371 4473.96C46.8689 4473.96 62.4595 4492.41 62.4595 4515.18Z" fill="url(#paint1_linear_17510_12913)"/>
</g>
<path d="M62.2454 4427.86V4444.91C65.6882 4439.59 72.9389 4437.82 82.0007 4437.93C94.0831 4438.08 99.3708 4442.31 105.412 4449.86L37.5508 4449.87V4428.74C37.5508 4400.85 45.5445 4379 75.0371 4379C100.086 4379 110.746 4391.79 111.101 4415.06V4417.37H87.4741C87.4741 4404.58 85.3422 4398.19 75.2165 4398.19C65.8001 4398.19 62.2475 4406 62.2475 4427.86L62.2454 4427.86Z" fill="url(#paint2_linear_17510_12913)"/>
<path d="M193.715 4456.28V4485.4C193.715 4509.92 181.278 4527.15 156.228 4527.15C131.179 4527.15 118.742 4509.92 118.742 4485.4V4456.28H143.614V4485.05C143.614 4494.28 145.567 4506.01 156.228 4506.01C166.89 4506.01 168.843 4494.28 168.843 4485.05V4456.28H193.715Z" fill="url(#paint3_linear_17510_12913)"/>
<path d="M193.715 4421.11V4449.87H168.843V4421.46C168.843 4411.69 167.422 4400.14 156.228 4400.14C145.035 4400.14 143.614 4411.69 143.614 4421.46V4449.87H118.742V4421.11C118.742 4395.88 130.111 4379 156.228 4379C182.346 4379 193.715 4396.05 193.715 4421.11Z" fill="url(#paint4_linear_17510_12913)"/>
<path d="M43.3655 4555.17C43.3655 4548.8 43.1333 4545.17 42.7871 4543.98C43.5597 4544.09 45.0267 4544.09 46.3375 4544.09H55.602C56.9149 4544.09 58.6901 4544.09 59.4226 4543.86C59.2685 4544.71 59.0363 4546.64 59.0363 4548.88C58.3798 4548.45 57.4152 4548.22 55.1376 4547.99C53.8247 4547.91 51.317 4547.84 49.2716 4547.84C49.2336 4547.84 49.1175 4547.87 49.1175 4547.95V4555.67C49.1175 4555.75 49.1956 4555.86 49.2716 4555.86C50.1982 4555.86 53.7487 4555.86 55.0996 4555.83C57.5693 4555.75 58.2258 4555.59 58.7661 4555.44C58.4959 4556.87 58.3418 4559.3 58.3798 4560.49C57.6474 4560.07 56.9128 4559.84 55.2157 4559.72C53.9809 4559.61 50.3143 4559.57 49.2716 4559.57C49.1935 4559.57 49.1175 4559.65 49.1175 4559.72V4561.42C49.1175 4567.83 49.1956 4568.79 49.3877 4568.99C49.5038 4569.1 49.9281 4569.22 50.3143 4569.26C51.3951 4569.37 52.3977 4569.41 54.0189 4569.41C57.107 4569.41 59.2685 4569.14 60.6954 4568.48C60.2711 4569.87 59.8469 4572 59.6928 4573.16C59.5007 4573.27 58.9603 4573.31 57.4152 4573.31C52.2436 4573.31 49.1935 4573.04 46.7618 4573.04C44.9085 4573.04 43.5576 4573.08 42.9412 4573.16C43.0573 4571.73 43.3655 4567.71 43.3655 4561.96V4555.17V4555.17Z" fill="#A0DF9E"/>
<path d="M74.9735 4565.55C74.8574 4565.55 74.8194 4565.59 74.7814 4565.66C73.7788 4568.37 72.736 4571.38 72.3118 4573.11C71.6933 4573.08 71.0389 4573.04 69.688 4573.04C68.183 4573.04 66.832 4573.11 66.3297 4573.19C67.4104 4571.14 69.0695 4567.67 71.2711 4562.84L79.0284 4545.4C79.7609 4543.85 79.9931 4543.43 80.3013 4543.43C80.5335 4543.43 80.8416 4543.78 81.5741 4545.4C82.1525 4546.63 86.1293 4555.2 89.4876 4562.84C91.3008 4566.93 93.4623 4571.45 94.6993 4573.11C93.4644 4573.07 92.2676 4573.03 91.7652 4573.03C90.1061 4573.03 88.2148 4573.11 87.4802 4573.19C86.7858 4571.41 85.3187 4567.78 84.3541 4565.66C84.3161 4565.58 84.3161 4565.54 84.2 4565.54H74.9756L74.9735 4565.55ZM82.8111 4561.84C82.9271 4561.84 82.9651 4561.76 82.9271 4561.65L79.4527 4553.08L76.1324 4561.65C76.0944 4561.77 76.0944 4561.84 76.2105 4561.84H82.8111Z" fill="#A0DF9E"/>
<path d="M101.799 4555.16C101.799 4549.64 101.683 4545.55 101.181 4543.97C102.145 4544.05 102.994 4544.08 103.961 4544.08C104.617 4544.08 108.4 4543.93 110.097 4543.93C113.531 4543.93 116.003 4544.39 117.624 4545.32C119.631 4546.48 121.407 4548.68 121.407 4551.84C121.407 4555.01 119.669 4557.79 116.659 4559.68C118.859 4562.88 121.485 4566.62 123.954 4569.4C125.73 4571.41 126.888 4572.53 127.737 4572.95C126.964 4573.22 125.151 4573.3 123.722 4573.3C121.058 4573.3 119.862 4572.61 118.589 4571.37C116.311 4569.21 113.223 4563.85 111.834 4561.92C111.718 4561.76 111.564 4561.65 111.372 4561.65H107.551C107.435 4561.65 107.435 4561.68 107.435 4561.84V4562.8C107.435 4567.28 107.627 4571.18 107.897 4573.11C107.319 4573.07 106.276 4573.03 105.157 4573.03C104.039 4573.03 101.915 4573.11 101.297 4573.18C101.567 4571.41 101.799 4566.82 101.799 4561.95V4555.16V4555.16ZM107.435 4557.48C107.435 4557.79 107.473 4557.86 107.551 4557.9C108.284 4558.17 109.751 4558.33 111.488 4558.33C112.452 4558.33 113.109 4558.17 113.533 4557.9C114.652 4557.05 115.733 4555.59 115.733 4553.19C115.733 4549.1 112.761 4547.29 109.751 4547.29C108.786 4547.29 107.897 4547.32 107.551 4547.44C107.435 4547.52 107.435 4547.59 107.435 4547.75V4557.48Z" fill="#A0DF9E"/>
<path d="M128.394 4543.66C129.553 4543.97 131.366 4544.08 134.916 4544.08H147.963C150.665 4544.08 153.521 4543.93 154.41 4543.69C154.024 4545.35 153.869 4547.32 153.831 4549.02C153.021 4548.44 151.708 4548.17 149.508 4547.98C148.12 4547.86 146.769 4547.82 143.718 4547.82V4561.95C143.718 4566.43 143.951 4571.29 144.143 4573.11C143.602 4573.07 142.676 4573.03 141.557 4573.03C139.858 4573.03 138.547 4573.07 137.542 4573.18C137.774 4571.52 137.928 4566.81 137.928 4561.95V4547.82C136.307 4547.82 135.343 4547.78 132.911 4547.9C129.977 4548.05 128.858 4548.25 127.507 4548.71C127.856 4547.63 128.28 4544.97 128.396 4543.65L128.394 4543.66Z" fill="#A0DF9E"/>
<path d="M161.626 4555.16C161.626 4549.64 161.394 4545.67 161.048 4543.97C161.588 4544.05 162.823 4544.08 163.866 4544.08C165.603 4544.08 167.07 4544.01 167.727 4543.93C167.573 4545.32 167.379 4548.68 167.379 4554.43V4554.97C167.379 4555.09 167.417 4555.12 167.533 4555.12H181.004C181.12 4555.12 181.158 4555.09 181.158 4554.97V4554.43C181.158 4548.91 180.966 4545.47 180.772 4543.97C181.312 4544.05 182.315 4544.09 183.628 4544.09C185.171 4544.09 186.446 4544.05 187.372 4543.93C187.18 4545.4 186.948 4549.68 186.948 4555.16V4561.96C186.948 4566.43 187.14 4571.22 187.372 4573.11C186.87 4573.07 185.519 4573.03 184.478 4573.03C183.127 4573.03 181.004 4573.15 180.774 4573.19C180.966 4571.45 181.16 4566.82 181.16 4561.95V4559.56C181.16 4559.41 181.122 4559.37 181.044 4559.37H167.535C167.419 4559.37 167.381 4559.45 167.381 4559.56V4561.95C167.381 4566.43 167.613 4571.22 167.805 4573.11C167.343 4573.07 166.338 4573.03 165.219 4573.03C163.406 4573.03 161.823 4573.11 161.204 4573.18C161.437 4571.45 161.629 4566.82 161.629 4561.95V4555.16L161.626 4555.16Z" fill="#A0DF9E"/>
<path d="M51.0403 4592.66C51.0403 4587.14 50.8081 4583.17 50.4619 4581.47C51.0023 4581.55 52.2372 4581.59 53.2799 4581.59C55.0171 4581.59 56.4842 4581.51 57.1406 4581.43C56.9865 4582.82 56.7923 4586.18 56.7923 4591.93V4592.47C56.7923 4592.59 56.8303 4592.62 56.9464 4592.62H70.4178C70.5339 4592.62 70.5719 4592.59 70.5719 4592.47V4591.93C70.5719 4586.41 70.3798 4582.98 70.1856 4581.47C70.7259 4581.55 71.7286 4581.59 73.0415 4581.59C74.5846 4581.59 75.8595 4581.55 76.7862 4581.43C76.5941 4582.9 76.3619 4587.19 76.3619 4592.66V4599.46C76.3619 4603.93 76.554 4608.72 76.7862 4610.61C76.2838 4610.57 74.9328 4610.53 73.8922 4610.53C72.5413 4610.53 70.4178 4610.65 70.1877 4610.69C70.3798 4608.95 70.574 4604.32 70.574 4599.46V4597.06C70.574 4596.91 70.536 4596.87 70.4579 4596.87H56.9485C56.8324 4596.87 56.7944 4596.95 56.7944 4597.06V4599.46C56.7944 4603.93 57.0266 4608.72 57.2187 4610.61C56.7564 4610.57 55.7517 4610.53 54.633 4610.53C52.8197 4610.53 51.2366 4610.61 50.6181 4610.69C50.8503 4608.95 51.0424 4604.32 51.0424 4599.45V4592.66L51.0403 4592.66Z" fill="#A0DF9E"/>
<path d="M85.6607 4596.25C85.6607 4588.73 90.7563 4580.93 101.524 4580.93C111.096 4580.93 116.808 4587.53 116.808 4595.33C116.808 4604.17 111.056 4611.19 101.021 4611.19C90.1758 4611.19 85.6586 4603.12 85.6586 4596.25H85.6607ZM110.288 4596.68C110.288 4590.5 107.046 4584.4 100.407 4584.4C95.8138 4584.4 92.1853 4587.88 92.1853 4594.94C92.1853 4602 95.5816 4607.64 102.144 4607.64C105.386 4607.64 110.288 4605.59 110.288 4596.68Z" fill="#A0DF9E"/>
<path d="M127.736 4581.59C129.59 4581.59 131.133 4581.55 131.905 4581.43C131.751 4582.86 131.519 4587.19 131.519 4592.66V4597.68C131.519 4602.28 132.367 4604.17 134.143 4605.56C135.726 4606.83 137.539 4606.94 138.774 4606.94C140.125 4606.94 141.9 4606.64 143.175 4605.44C145.104 4603.66 145.415 4601.5 145.415 4596.56V4592.66C145.415 4587.14 145.106 4582.97 144.836 4581.47C145.415 4581.55 146.535 4581.59 147.23 4581.59C148.773 4581.59 150.048 4581.47 150.394 4581.43C150.162 4582.86 149.854 4587.18 149.854 4592.66V4596.68C149.854 4601.12 149.621 4605.71 145.993 4608.72C143.677 4610.69 140.589 4611.19 137.965 4611.19C134.723 4611.19 131.327 4610.57 129.127 4608.6C127.12 4606.87 125.731 4604.43 125.731 4598.84V4592.66C125.731 4587.14 125.423 4582.86 125.153 4581.47C125.731 4581.55 126.736 4581.59 127.738 4581.59L127.736 4581.59Z" fill="#A0DF9E"/>
<path d="M160.851 4592.66C160.851 4587.14 160.735 4583.05 160.233 4581.47C161.197 4581.55 162.046 4581.59 163.013 4581.59C163.669 4581.59 167.452 4581.43 169.149 4581.43C172.583 4581.43 175.055 4581.89 176.676 4582.82C178.684 4583.98 180.459 4586.18 180.459 4589.34C180.459 4592.51 178.722 4595.29 175.711 4597.18C177.911 4600.38 180.537 4604.12 183.007 4606.9C184.782 4608.91 185.941 4610.03 186.789 4610.46C186.017 4610.73 184.203 4610.8 182.774 4610.8C180.11 4610.8 178.914 4610.11 177.641 4608.87C175.363 4606.71 172.275 4601.35 170.886 4599.42C170.77 4599.26 170.616 4599.15 170.424 4599.15H166.603C166.487 4599.15 166.487 4599.19 166.487 4599.34V4600.3C166.487 4604.78 166.679 4608.68 166.949 4610.61C166.371 4610.57 165.328 4610.53 164.21 4610.53C163.091 4610.53 160.967 4610.61 160.349 4610.69C160.619 4608.91 160.851 4604.32 160.851 4599.45V4592.66V4592.66ZM166.487 4594.98C166.487 4595.29 166.525 4595.37 166.603 4595.4C167.336 4595.67 168.803 4595.83 170.54 4595.83C171.505 4595.83 172.161 4595.67 172.585 4595.4C173.704 4594.56 174.785 4593.09 174.785 4590.7C174.785 4586.6 171.813 4584.79 168.803 4584.79C167.838 4584.79 166.949 4584.83 166.603 4584.94C166.487 4585.02 166.487 4585.1 166.487 4585.25V4594.98Z" fill="#A0DF9E"/>
<path d="M186.092 4526.63V4522.51H184.733V4521.62H188.515V4522.51H187.156V4526.63H186.092Z" fill="#A0DF9E"/>
<path d="M191.405 4526.63L190.2 4522.7H190.168C190.212 4523.5 190.233 4524.04 190.233 4524.3V4526.63H189.283V4521.62H190.729L191.916 4525.46H191.937L193.195 4521.62H194.641V4526.63H193.651V4524.26C193.651 4524.15 193.651 4524.02 193.655 4523.88C193.659 4523.73 193.674 4523.34 193.701 4522.71H193.67L192.378 4526.63H191.405Z" fill="#A0DF9E"/>
<path d="M2574.43 4494.2H2567.57V4412.24H2574.43V4494.2ZM2552.81 4473.23C2549.67 4475.52 2547.49 4477.86 2546.26 4480.27C2538.29 4472.97 2531.74 4464.93 2526.62 4456.14C2522.66 4465.75 2516.79 4474 2509 4480.88C2508.03 4479.06 2506.11 4477 2503.24 4474.68C2509.65 4469.85 2514.59 4463.52 2518.05 4455.7C2521.53 4447.88 2523.28 4440.04 2523.28 4432.19H2505.04V4424.98H2550.3V4432.19H2531.58C2531.17 4438.78 2530.6 4443.28 2529.87 4445.68C2532.39 4451.1 2535.85 4456.48 2540.24 4461.81C2544.66 4467.11 2548.85 4470.92 2552.81 4473.23ZM2672.01 4457.94H2637.64V4493.76H2630.79V4457.94H2596.33V4450.73H2651.13C2653.77 4436.82 2655.09 4428.23 2655.09 4424.98H2602.27V4417.82H2663.17C2662.94 4423.42 2661.33 4434.39 2658.34 4450.73H2672.01V4457.94ZM2767.3 4494.2H2760.44V4412.24H2767.3V4494.2ZM2745.94 4442.12C2745.94 4448.1 2743.88 4453.11 2739.74 4457.15C2735.64 4461.16 2730.21 4463.17 2723.44 4463.17C2716.53 4463.17 2711.05 4461.19 2707.01 4457.24C2702.96 4453.28 2700.94 4448.14 2700.94 4441.81C2700.94 4435.98 2703.04 4431.06 2707.23 4427.05C2711.44 4423.03 2716.82 4421.03 2723.35 4421.03C2730.03 4421.03 2735.47 4423.06 2739.66 4427.14C2743.85 4431.18 2745.94 4436.17 2745.94 4442.12ZM2723.44 4427.79C2719.19 4427.79 2715.55 4429.2 2712.5 4432.01C2709.48 4434.8 2707.97 4438.12 2707.97 4441.99C2707.97 4445.89 2709.5 4449.24 2712.54 4452.05C2715.62 4454.84 2719.31 4456.23 2723.62 4456.23C2727.86 4456.23 2731.48 4454.84 2734.47 4452.05C2737.49 4449.27 2739 4445.92 2739 4441.99C2739 4438.09 2737.47 4434.75 2734.43 4431.97C2731.41 4429.19 2727.75 4427.79 2723.44 4427.79ZM2756.14 4477.85L2693.82 4483.34L2691.67 4476.05C2705.47 4475.96 2726.96 4474.51 2756.14 4471.7V4477.85ZM2895.22 4494.2H2888.36V4412.24H2895.22V4494.2ZM2872.32 4477.1C2863.5 4470.39 2856.31 4460.92 2850.74 4448.67C2845.29 4461.41 2837.68 4471.8 2827.89 4479.83C2825.55 4476.75 2823.47 4474.76 2821.65 4473.85C2829.24 4469.22 2835.39 4462.39 2840.11 4453.37C2844.83 4444.35 2847.18 4436.23 2847.18 4429.03C2847.18 4423.4 2846.99 4419.64 2846.61 4417.73L2856.85 4418.7C2855.71 4421.16 2854.95 4423.44 2854.57 4425.55C2854.19 4427.63 2854 4431.71 2854 4437.77C2854 4438.62 2854.84 4440.82 2856.54 4444.36C2858.24 4447.88 2859.87 4450.85 2861.42 4453.28C2862.97 4455.69 2864.66 4457.97 2866.48 4460.14C2868.29 4462.31 2870.21 4464.31 2872.23 4466.16C2874.28 4468 2876.39 4469.65 2878.56 4471.08C2875.81 4472.75 2873.73 4474.76 2872.32 4477.1ZM2994.24 4445.99H2979.92V4473.06H2973.11V4412.24H2979.92V4439.04H2994.24V4445.99ZM2922.44 4464.4C2920.65 4461.68 2919.2 4459.7 2918.09 4458.47C2925.35 4455.77 2932.03 4451.35 2938.12 4445.2C2944.22 4439.02 2948.19 4432.79 2950.03 4426.52H2920.72V4419.31H2959.39C2957.64 4429.1 2953.45 4438.02 2946.83 4446.08C2940.21 4454.13 2932.08 4460.24 2922.44 4464.4ZM2980 4492.04H2927.01V4464.62H2934.04V4484.92H2980V4492.04Z" fill="white"/>
<path d="M1999.51 4581.15C2003.5 4581.91 2006.5 4583.85 2008.52 4586.95C2010.57 4590.03 2011.6 4593.38 2011.6 4597.02C2011.6 4602.88 2009.46 4607.69 2005.18 4611.47C2000.93 4615.22 1995.83 4617.1 1989.89 4617.1C1984.2 4617.1 1979.52 4615.44 1975.83 4612.13C1972.13 4608.82 1969.98 4604.44 1969.37 4598.99L1977.28 4597.89C1978.07 4602.14 1979.5 4605.32 1981.58 4607.43C1983.69 4609.54 1986.46 4610.59 1989.89 4610.59C1993.58 4610.59 1996.7 4609.31 1999.25 4606.73C2001.83 4604.12 2003.12 4600.94 2003.12 4597.19C2003.12 4593.59 2001.94 4590.6 1999.6 4588.23C1997.29 4585.85 1994.25 4584.67 1990.5 4584.67C1988.98 4584.67 1987.12 4584.95 1984.92 4585.5L1985.84 4578.56C1987.95 4578.56 1989.62 4578.46 1990.85 4578.25C1992.08 4578.05 1993.46 4577.55 1994.99 4576.76C1996.51 4575.97 1997.77 4574.84 1998.76 4573.37C1999.76 4571.88 2000.26 4570.03 2000.26 4567.84C2000.26 4564.64 1999.19 4562.17 1997.05 4560.41C1994.94 4558.65 1992.5 4557.77 1989.71 4557.77C1986.52 4557.77 1983.91 4558.78 1981.89 4560.8C1979.9 4562.83 1978.64 4565.71 1978.11 4569.46L1970.2 4568.01C1971.23 4562.42 1973.48 4558.23 1976.97 4555.44C1980.48 4552.66 1984.67 4551.27 1989.54 4551.27C1994.9 4551.27 1999.37 4552.89 2002.94 4556.15C2006.54 4559.37 2008.34 4563.32 2008.34 4568.01C2008.34 4574.02 2005.4 4578.34 1999.51 4580.98V4581.15ZM2103.68 4588.53H2096.82V4583.7H2078.54V4577.11H2096.82V4540.33H2103.68V4588.53ZM2077.58 4557.25C2077.58 4560.91 2075.72 4564.03 2072 4566.61C2068.28 4569.18 2063.29 4570.47 2057.05 4570.47C2050.81 4570.47 2045.83 4569.29 2042.11 4566.91C2038.39 4564.51 2036.53 4561.23 2036.53 4557.07C2036.53 4553.06 2038.49 4549.82 2042.42 4547.36C2046.38 4544.87 2051.25 4543.62 2057.05 4543.62C2063.35 4543.62 2068.35 4544.96 2072.04 4547.62C2075.73 4550.26 2077.58 4553.47 2077.58 4557.25ZM2070.46 4556.98C2070.46 4554.87 2069.21 4553.19 2066.72 4551.93C2064.26 4550.67 2061.01 4550.04 2056.97 4550.04C2052.92 4550.04 2049.66 4550.67 2047.17 4551.93C2044.68 4553.19 2043.43 4554.87 2043.43 4556.98C2043.43 4559.06 2044.68 4560.73 2047.17 4561.99C2049.66 4563.25 2052.92 4563.88 2056.97 4563.88C2061.01 4563.88 2064.26 4563.25 2066.72 4561.99C2069.21 4560.73 2070.46 4559.06 2070.46 4556.98ZM2084.78 4574.34L2060.35 4578.03V4587.74H2053.28V4578.73L2030.69 4580.71L2028.71 4574.34C2055.14 4572.73 2073.78 4570.96 2084.65 4569.02L2084.78 4574.34ZM2103.11 4590.6V4608.62H2052.35V4614.46H2104.47V4621.58H2045.45V4601.76H2096.12V4597.54H2045.23V4590.6H2103.11ZM2195.3 4616H2152.63C2152.63 4612.37 2153.89 4608.69 2156.41 4604.97C2158.96 4601.25 2163.7 4596.59 2170.65 4591C2174.89 4587.6 2178.69 4584.04 2182.03 4580.32C2185.37 4576.57 2187.04 4572.8 2187.04 4569.02C2187.04 4565.77 2185.88 4563.09 2183.57 4560.98C2181.28 4558.84 2178.38 4557.77 2174.86 4557.77C2171.32 4557.77 2168.35 4558.87 2165.94 4561.07C2163.54 4563.24 2162.33 4566.49 2162.3 4570.82L2154.17 4569.9C2154.66 4563.87 2156.8 4559.25 2160.58 4556.06C2164.39 4552.87 2169.21 4551.27 2175.04 4551.27C2181.37 4551.27 2186.29 4553.03 2189.81 4556.54C2193.35 4560.03 2195.12 4564.25 2195.12 4569.2C2195.12 4573.33 2193.63 4577.52 2190.64 4581.77C2187.68 4585.99 2181.76 4591.64 2172.89 4598.73C2168.23 4602.45 2165.14 4605.66 2163.61 4608.35H2195.3V4616ZM2251.83 4616H2209.16C2209.16 4612.37 2210.42 4608.69 2212.94 4604.97C2215.49 4601.25 2220.23 4596.59 2227.18 4591C2231.43 4587.6 2235.22 4584.04 2238.56 4580.32C2241.9 4576.57 2243.57 4572.8 2243.57 4569.02C2243.57 4565.77 2242.41 4563.09 2240.1 4560.98C2237.81 4558.84 2234.91 4557.77 2231.4 4557.77C2227.85 4557.77 2224.88 4558.87 2222.48 4561.07C2220.07 4563.24 2218.86 4566.49 2218.83 4570.82L2210.7 4569.9C2211.2 4563.87 2213.33 4559.25 2217.11 4556.06C2220.92 4552.87 2225.74 4551.27 2231.57 4551.27C2237.9 4551.27 2242.82 4553.03 2246.34 4556.54C2249.88 4560.03 2251.66 4564.25 2251.66 4569.2C2251.66 4573.33 2250.16 4577.52 2247.17 4581.77C2244.21 4585.99 2238.3 4591.64 2229.42 4598.73C2224.76 4602.45 2221.67 4605.66 2220.15 4608.35H2251.83V4616ZM2337.89 4588.01V4540.24H2344.57V4588.01H2337.89ZM2315.75 4564.63C2315.75 4570.25 2313.81 4574.97 2309.95 4578.78C2306.11 4582.59 2301.02 4584.49 2294.7 4584.49C2288.22 4584.49 2283.09 4582.67 2279.32 4579.04C2275.54 4575.41 2273.65 4570.68 2273.65 4564.85C2273.65 4559.02 2275.64 4554.26 2279.62 4550.57C2283.64 4546.84 2288.66 4544.98 2294.7 4544.98C2300.91 4544.98 2305.96 4546.87 2309.86 4550.65C2313.78 4554.43 2315.75 4559.09 2315.75 4564.63ZM2308.93 4564.72C2308.93 4561.17 2307.54 4558.14 2304.76 4555.62C2302.01 4553.1 2298.68 4551.84 2294.78 4551.84C2290.89 4551.84 2287.55 4553.11 2284.76 4555.66C2282.01 4558.18 2280.63 4561.2 2280.63 4564.72C2280.63 4568.23 2282.01 4571.26 2284.76 4573.81C2287.55 4576.33 2290.89 4577.59 2294.78 4577.59C2298.68 4577.59 2302.01 4576.33 2304.76 4573.81C2307.54 4571.26 2308.93 4568.23 2308.93 4564.72ZM2344.09 4590.6V4608.62H2293.33V4614.46H2345.45V4621.58H2286.43V4601.76H2337.1V4597.54H2286.21V4590.6H2344.09ZM2415.85 4551.58L2397.21 4618.15H2390.84L2409.47 4551.58H2415.85ZM2499.25 4616H2456.58C2456.58 4612.37 2457.84 4608.69 2460.36 4604.97C2462.9 4601.25 2467.65 4596.59 2474.59 4591C2478.84 4587.6 2482.64 4584.04 2485.98 4580.32C2489.32 4576.57 2490.98 4572.8 2490.98 4569.02C2490.98 4565.77 2489.83 4563.09 2487.51 4560.98C2485.23 4558.84 2482.33 4557.77 2478.81 4557.77C2475.27 4557.77 2472.29 4558.87 2469.89 4561.07C2467.49 4563.24 2466.27 4566.49 2466.24 4570.82L2458.11 4569.9C2458.61 4563.87 2460.75 4559.25 2464.53 4556.06C2468.34 4552.87 2473.16 4551.27 2478.99 4551.27C2485.32 4551.27 2490.24 4553.03 2493.75 4556.54C2497.3 4560.03 2499.07 4564.25 2499.07 4569.2C2499.07 4573.33 2497.58 4577.52 2494.59 4581.77C2491.63 4585.99 2485.71 4591.64 2476.83 4598.73C2472.18 4602.45 2469.09 4605.66 2467.56 4608.35H2499.25V4616ZM2535.34 4551.27C2549.35 4551.27 2556.35 4562.25 2556.35 4584.23C2556.35 4595.33 2554.53 4603.59 2550.9 4609.01C2547.3 4614.4 2542.11 4617.1 2535.34 4617.1C2521.37 4617.1 2514.38 4606.14 2514.38 4584.23C2514.38 4573.12 2516.18 4564.86 2519.79 4559.44C2523.42 4553.99 2528.61 4551.27 2535.34 4551.27ZM2535.34 4610.59C2539.59 4610.59 2542.8 4608.54 2544.97 4604.44C2547.14 4600.31 2548.22 4593.57 2548.22 4584.23C2548.22 4577.72 2547.74 4572.61 2546.77 4568.89C2545.83 4565.14 2544.4 4562.36 2542.46 4560.54C2540.56 4558.7 2538.16 4557.77 2535.26 4557.77C2531.01 4557.77 2527.81 4559.87 2525.68 4564.06C2523.54 4568.25 2522.47 4574.97 2522.47 4584.23C2522.47 4590.64 2522.95 4595.73 2523.92 4599.48C2524.89 4603.23 2526.32 4606.02 2528.22 4607.87C2530.13 4609.69 2532.5 4610.59 2535.34 4610.59ZM2583.97 4578.38H2574.96V4569.37H2583.97V4578.38ZM2583.97 4616H2574.96V4606.99H2583.97V4616ZM2632.46 4581.15C2636.44 4581.91 2639.44 4583.85 2641.46 4586.95C2643.52 4590.03 2644.54 4593.38 2644.54 4597.02C2644.54 4602.88 2642.4 4607.69 2638.12 4611.47C2633.88 4615.22 2628.78 4617.1 2622.83 4617.1C2617.15 4617.1 2612.46 4615.44 2608.77 4612.13C2605.08 4608.82 2602.92 4604.44 2602.31 4598.99L2610.22 4597.89C2611.01 4602.14 2612.45 4605.32 2614.53 4607.43C2616.64 4609.54 2619.4 4610.59 2622.83 4610.59C2626.52 4610.59 2629.64 4609.31 2632.19 4606.73C2634.77 4604.12 2636.06 4600.94 2636.06 4597.19C2636.06 4593.59 2634.89 4590.6 2632.54 4588.23C2630.23 4585.85 2627.2 4584.67 2623.45 4584.67C2621.92 4584.67 2620.06 4584.95 2617.87 4585.5L2618.79 4578.56C2620.9 4578.56 2622.57 4578.46 2623.8 4578.25C2625.03 4578.05 2626.41 4577.55 2627.93 4576.76C2629.45 4575.97 2630.71 4574.84 2631.71 4573.37C2632.7 4571.88 2633.2 4570.03 2633.2 4567.84C2633.2 4564.64 2632.13 4562.17 2629.99 4560.41C2627.89 4558.65 2625.44 4557.77 2622.66 4557.77C2619.46 4557.77 2616.86 4558.78 2614.83 4560.8C2612.84 4562.83 2611.58 4565.71 2611.05 4569.46L2603.14 4568.01C2604.17 4562.42 2606.43 4558.23 2609.91 4555.44C2613.43 4552.66 2617.62 4551.27 2622.48 4551.27C2627.84 4551.27 2632.31 4552.89 2635.88 4556.15C2639.49 4559.37 2641.29 4563.32 2641.29 4568.01C2641.29 4574.02 2638.34 4578.34 2632.46 4580.98V4581.15ZM2679.89 4551.27C2693.9 4551.27 2700.9 4562.25 2700.9 4584.23C2700.9 4595.33 2699.08 4603.59 2695.45 4609.01C2691.84 4614.4 2686.66 4617.1 2679.89 4617.1C2665.92 4617.1 2658.93 4606.14 2658.93 4584.23C2658.93 4573.12 2660.73 4564.86 2664.33 4559.44C2667.97 4553.99 2673.15 4551.27 2679.89 4551.27ZM2679.89 4610.59C2684.14 4610.59 2687.35 4608.54 2689.52 4604.44C2691.68 4600.31 2692.77 4593.57 2692.77 4584.23C2692.77 4577.72 2692.28 4572.61 2691.32 4568.89C2690.38 4565.14 2688.94 4562.36 2687.01 4560.54C2685.11 4558.7 2682.7 4557.77 2679.8 4557.77C2675.56 4557.77 2672.36 4559.87 2670.22 4564.06C2668.08 4568.25 2667.02 4574.97 2667.02 4584.23C2667.02 4590.64 2667.5 4595.73 2668.47 4599.48C2669.43 4603.23 2670.87 4606.02 2672.77 4607.87C2674.68 4609.69 2677.05 4610.59 2679.89 4610.59ZM2738.49 4596.66H2714.32V4588.71H2738.49V4596.66ZM2793.26 4616H2750.59C2750.59 4612.37 2751.85 4608.69 2754.37 4604.97C2756.92 4601.25 2761.67 4596.59 2768.61 4591C2772.86 4587.6 2776.65 4584.04 2779.99 4580.32C2783.33 4576.57 2785 4572.8 2785 4569.02C2785 4565.77 2783.84 4563.09 2781.53 4560.98C2779.24 4558.84 2776.34 4557.77 2772.83 4557.77C2769.28 4557.77 2766.31 4558.87 2763.91 4561.07C2761.5 4563.24 2760.29 4566.49 2760.26 4570.82L2752.13 4569.9C2752.63 4563.87 2754.77 4559.25 2758.55 4556.06C2762.35 4552.87 2767.17 4551.27 2773 4551.27C2779.33 4551.27 2784.25 4553.03 2787.77 4556.54C2791.31 4560.03 2793.09 4564.25 2793.09 4569.2C2793.09 4573.33 2791.59 4577.52 2788.6 4581.77C2785.65 4585.99 2779.73 4591.64 2770.85 4598.73C2766.19 4602.45 2763.1 4605.66 2761.58 4608.35H2793.26V4616ZM2838.11 4616H2830.2V4565.59C2826.24 4569.34 2820.95 4572.52 2814.33 4575.13V4567.48C2823.44 4563.12 2829.65 4557.71 2832.96 4551.27H2838.11V4616ZM2877.98 4578.38H2868.97V4569.37H2877.98V4578.38ZM2877.98 4616H2868.97V4606.99H2877.98V4616ZM2926.47 4581.15C2930.46 4581.91 2933.46 4583.85 2935.48 4586.95C2937.53 4590.03 2938.56 4593.38 2938.56 4597.02C2938.56 4602.88 2936.42 4607.69 2932.14 4611.47C2927.89 4615.22 2922.8 4617.1 2916.85 4617.1C2911.16 4617.1 2906.48 4615.44 2902.79 4612.13C2899.09 4608.82 2896.94 4604.44 2896.33 4598.99L2904.24 4597.89C2905.03 4602.14 2906.46 4605.32 2908.54 4607.43C2910.65 4609.54 2913.42 4610.59 2916.85 4610.59C2920.54 4610.59 2923.66 4609.31 2926.21 4606.73C2928.79 4604.12 2930.08 4600.94 2930.08 4597.19C2930.08 4593.59 2928.9 4590.6 2926.56 4588.23C2924.25 4585.85 2921.21 4584.67 2917.46 4584.67C2915.94 4584.67 2914.08 4584.95 2911.88 4585.5L2912.8 4578.56C2914.91 4578.56 2916.58 4578.46 2917.81 4578.25C2919.05 4578.05 2920.42 4577.55 2921.95 4576.76C2923.47 4575.97 2924.73 4574.84 2925.72 4573.37C2926.72 4571.88 2927.22 4570.03 2927.22 4567.84C2927.22 4564.64 2926.15 4562.17 2924.01 4560.41C2921.9 4558.65 2919.46 4557.77 2916.67 4557.77C2913.48 4557.77 2910.87 4558.78 2908.85 4560.8C2906.86 4562.83 2905.6 4565.71 2905.07 4569.46L2897.16 4568.01C2898.19 4562.42 2900.44 4558.23 2903.93 4555.44C2907.44 4552.66 2911.63 4551.27 2916.5 4551.27C2921.86 4551.27 2926.33 4552.89 2929.9 4556.15C2933.5 4559.37 2935.3 4563.32 2935.3 4568.01C2935.3 4574.02 2932.36 4578.34 2926.47 4580.98V4581.15ZM2973.91 4551.27C2987.91 4551.27 2994.91 4562.25 2994.91 4584.23C2994.91 4595.33 2993.1 4603.59 2989.46 4609.01C2985.86 4614.4 2980.67 4617.1 2973.91 4617.1C2959.93 4617.1 2952.95 4606.14 2952.95 4584.23C2952.95 4573.12 2954.75 4564.86 2958.35 4559.44C2961.98 4553.99 2967.17 4551.27 2973.91 4551.27ZM2973.91 4610.59C2978.16 4610.59 2981.36 4608.54 2983.53 4604.44C2985.7 4600.31 2986.78 4593.57 2986.78 4584.23C2986.78 4577.72 2986.3 4572.61 2985.33 4568.89C2984.4 4565.14 2982.96 4562.36 2981.03 4560.54C2979.12 4558.7 2976.72 4557.77 2973.82 4557.77C2969.57 4557.77 2966.38 4559.87 2964.24 4564.06C2962.1 4568.25 2961.03 4574.97 2961.03 4584.23C2961.03 4590.64 2961.51 4595.73 2962.48 4599.48C2963.45 4603.23 2964.88 4606.02 2966.79 4607.87C2968.69 4609.69 2971.07 4610.59 2973.91 4610.59Z" fill="white"/>
<defs>
<linearGradient id="paint0_linear_17510_12913" x1="48.4596" y1="4471.96" x2="103.054" y2="4500.73" gradientUnits="userSpaceOnUse">
<stop stop-color="#A0DF9E"/>
<stop offset="1" stop-color="#4587C2"/>
</linearGradient>
<linearGradient id="paint1_linear_17510_12913" x1="64.9693" y1="4545.73" x2="22.5479" y2="4504.05" gradientUnits="userSpaceOnUse">
<stop offset="0.17" stop-color="#A0DF9E"/>
<stop offset="1" stop-color="#4587C2"/>
</linearGradient>
<linearGradient id="paint2_linear_17510_12913" x1="54.0976" y1="4426.18" x2="112.874" y2="4404.54" gradientUnits="userSpaceOnUse">
<stop offset="0.17" stop-color="#A0DF9E"/>
<stop offset="1" stop-color="#4587C2"/>
</linearGradient>
<linearGradient id="paint3_linear_17510_12913" x1="116.446" y1="4493.09" x2="163.296" y2="4490.14" gradientUnits="userSpaceOnUse">
<stop stop-color="#A0DF9E"/>
<stop offset="1" stop-color="#4587C2"/>
</linearGradient>
<linearGradient id="paint4_linear_17510_12913" x1="233.215" y1="4464.71" x2="111.85" y2="4396.84" gradientUnits="userSpaceOnUse">
<stop stop-color="#A0DF9E"/>
<stop offset="1" stop-color="#4587C2"/>
</linearGradient>
</defs>
</svg>
